<svg xmlns="http://www.w3.org/2000/svg" width="1440" height="810" viewBox="0 0 1440 810" role="img" aria-label="Notion 图解：组合后的系统里有四个责任人">
  <defs>
    <filter id="wobble" x="-5%" y="-5%" width="110%" height="110%">
      <feTurbulence type="fractalNoise" baseFrequency="0.008" numOctaves="1" seed="81" result="noise"/>
      <feDisplacementMap in="SourceGraphic" in2="noise" scale="1.35" xChannelSelector="R" yChannelSelector="G"/>
    </filter>
    <filter id="shadow" x="-10%" y="-10%" width="120%" height="130%">
      <feDropShadow dx="0" dy="8" stdDeviation="10" flood-color="#1A1A1A" flood-opacity="0.08"/>
    </filter>
  </defs>
  <rect width="1440" height="810" fill="#FFFFFF"/>
  <rect x="50" y="50" width="1340" height="710" rx="42" fill="#FFFFFF" stroke="#D9D9D9" stroke-width="2" filter="url(#shadow)"/>
  <g stroke-linecap="round" stroke-linejoin="round"><line x1="720" y1="400" x2="720" y2="105" stroke="#1A1A1A" stroke-width="3" stroke-linecap="round" stroke-dasharray="9 12"/><line x1="720" y1="400" x2="1120" y2="290" stroke="#1A1A1A" stroke-width="3" stroke-linecap="round" stroke-dasharray="9 12"/><line x1="720" y1="400" x2="970" y2="650" stroke="#1A1A1A" stroke-width="3" stroke-linecap="round" stroke-dasharray="9 12"/><line x1="720" y1="400" x2="470" y2="650" stroke="#1A1A1A" stroke-width="3" stroke-linecap="round" stroke-dasharray="9 12"/><line x1="720" y1="400" x2="320" y2="290" stroke="#1A1A1A" stroke-width="3" stroke-linecap="round" stroke-dasharray="9 12"/><g filter="url(#wobble)"><circle cx="720" cy="400" r="122" fill="#FAFAFA" stroke="#1A1A1A" stroke-width="4"/><circle cx="720" cy="400" r="73" fill="#A8D4F0" stroke="#1A1A1A" stroke-width="3"/><circle cx="720" cy="400" r="30" fill="#FFFFFF" stroke="#1A1A1A" stroke-width="3"/><circle cx="720" cy="400" r="8" fill="#FFFFFF" stroke="#1A1A1A" stroke-width="3"/></g><g filter="url(#wobble)"><rect x="605" y="35" width="230" height="140" rx="26" fill="#FFFFFF" stroke="#D9D9D9" stroke-width="3" opacity="1"/><path d="M 636 133 L 668 73 L 700 133 Z" fill="#A8D4F0" stroke="#1A1A1A" stroke-width="3" stroke-linejoin="round"/><line x1="654" y1="113" x2="682" y2="113" stroke="#1A1A1A" stroke-width="3" stroke-linecap="round"/><rect x="725" y="82" width="72" height="7" rx="4" fill="#4A4A4A" opacity="0.55"/><rect x="725" y="100" width="54" height="7" rx="4" fill="#D9D9D9" opacity="0.9"/><rect x="725" y="118" width="63" height="7" rx="4" fill="#D9D9D9" opacity="0.9"/></g><g filter="url(#wobble)"><rect x="1005" y="220" width="230" height="140" rx="26" fill="#FFFFFF" stroke="#D9D9D9" stroke-width="3" opacity="1"/><rect x="1032" y="262" width="72" height="56" rx="12" fill="#F9E79F" stroke="#1A1A1A" stroke-width="3" opacity="1"/><path d="M 1053 292 l 9.9 9.9 l 20.900000000000002 -24.750000000000004" fill="none" stroke="#1A1A1A" stroke-width="2.75" stroke-linecap="round" stroke-linejoin="round"/><rect x="1125" y="267" width="72" height="7" rx="4" fill="#4A4A4A" opacity="0.55"/><rect x="1125" y="285" width="54" height="7" rx="4" fill="#D9D9D9" opacity="0.9"/><rect x="1125" y="303" width="63" height="7" rx="4" fill="#D9D9D9" opacity="0.9"/></g><g filter="url(#wobble)"><rect x="855" y="580" width="230" height="140" rx="26" fill="#FFFFFF" stroke="#D9D9D9" stroke-width="3" opacity="1"/><circle cx="918" cy="650" r="30" fill="#FADBD8" stroke="#1A1A1A" stroke-width="3"/><circle cx="918" cy="650" r="8" fill="#FFFFFF" stroke="#1A1A1A" stroke-width="3"/><rect x="975" y="627" width="72" height="7" rx="4" fill="#4A4A4A" opacity="0.55"/><rect x="975" y="645" width="54" height="7" rx="4" fill="#D9D9D9" opacity="0.9"/><rect x="975" y="663" width="63" height="7" rx="4" fill="#D9D9D9" opacity="0.9"/></g><g filter="url(#wobble)"><rect x="355" y="580" width="230" height="140" rx="26" fill="#FFFFFF" stroke="#D9D9D9" stroke-width="3" opacity="1"/><rect x="387" y="619" width="62" height="62" rx="16" fill="#BFE3D0" stroke="#1A1A1A" stroke-width="3" opacity="1"/><line x1="404" y1="650" x2="432" y2="650" stroke="#1A1A1A" stroke-width="3" stroke-linecap="round"/><line x1="418" y1="636" x2="418" y2="664" stroke="#1A1A1A" stroke-width="3" stroke-linecap="round"/><rect x="475" y="627" width="72" height="7" rx="4" fill="#4A4A4A" opacity="0.55"/><rect x="475" y="645" width="54" height="7" rx="4" fill="#D9D9D9" opacity="0.9"/><rect x="475" y="663" width="63" height="7" rx="4" fill="#D9D9D9" opacity="0.9"/></g><g filter="url(#wobble)"><rect x="205" y="220" width="230" height="140" rx="26" fill="#FFFFFF" stroke="#D9D9D9" stroke-width="3" opacity="1"/><path d="M 268 252 L 306 290 L 268 328 L 230 290 Z" fill="#D8CFF0" stroke="#1A1A1A" stroke-width="3"/><circle cx="268" cy="290" r="8" fill="#FFFFFF" stroke="#1A1A1A" stroke-width="3"/><rect x="325" y="267" width="72" height="7" rx="4" fill="#4A4A4A" opacity="0.55"/><rect x="325" y="285" width="54" height="7" rx="4" fill="#D9D9D9" opacity="0.9"/><rect x="325" y="303" width="63" height="7" rx="4" fill="#D9D9D9" opacity="0.9"/></g><g opacity="0.7">
    <path d="M 117 112 l 18 -8 l -8 18" fill="none" stroke="#1A1A1A" stroke-width="2.5" stroke-linecap="round"/>
    <path d="M 1268 690 l 15 15 m -15 0 l 15 -15" fill="none" stroke="#1A1A1A" stroke-width="2.5" stroke-linecap="round"/>
    <circle cx="1330" cy="138" r="8" fill="#F9E79F" stroke="#1A1A1A" stroke-width="2"/>
    <circle cx="132" cy="710" r="6" fill="#FADBD8" stroke="#1A1A1A" stroke-width="2"/>
  </g></g>
</svg>
