<svg xmlns="http://www.w3.org/2000/svg" width="1440" height="810" viewBox="0 0 1440 810" role="img" aria-label="Notion 图解：Thread History 怎样恢复任务">
  <defs>
    <filter id="wobble" x="-5%" y="-5%" width="110%" height="110%">
      <feTurbulence type="fractalNoise" baseFrequency="0.008" numOctaves="1" seed="36" result="noise"/>
      <feDisplacementMap in="SourceGraphic" in2="noise" scale="1.35" xChannelSelector="R" yChannelSelector="G"/>
    </filter>
    <filter id="shadow" x="-10%" y="-10%" width="120%" height="130%">
      <feDropShadow dx="0" dy="8" stdDeviation="10" flood-color="#1A1A1A" flood-opacity="0.08"/>
    </filter>
  </defs>
  <rect width="1440" height="810" fill="#FFFFFF"/>
  <rect x="50" y="50" width="1340" height="710" rx="42" fill="#FFFFFF" stroke="#D9D9D9" stroke-width="2" filter="url(#shadow)"/>
  <g stroke-linecap="round" stroke-linejoin="round"><g filter="url(#wobble)"><rect x="100" y="285" width="180" height="210" rx="28" fill="#FFFFFF" stroke="#D9D9D9" stroke-width="3" opacity="1"/><circle cx="190" cy="344" r="20" fill="#A8D4F0" stroke="#1A1A1A" stroke-width="3"/><path d="M 156 389 Q 190 358 224 389" fill="none" stroke="#1A1A1A" stroke-width="3" stroke-linecap="round"/><rect x="147" y="420" width="88" height="7" rx="4" fill="#4A4A4A" opacity="0.55"/><rect x="147" y="438" width="64" height="7" rx="4" fill="#D9D9D9" opacity="0.9"/><rect x="147" y="456" width="76" height="7" rx="4" fill="#D9D9D9" opacity="0.9"/></g><g filter="url(#wobble)"><rect x="365" y="319" width="180" height="210" rx="28" fill="#FFFFFF" stroke="#D9D9D9" stroke-width="3" opacity="1"/><path d="M 423 417 L 455 357 L 487 417 Z" fill="#BFE3D0" stroke="#1A1A1A" stroke-width="3" stroke-linejoin="round"/><line x1="441" y1="397" x2="469" y2="397" stroke="#1A1A1A" stroke-width="3" stroke-linecap="round"/><rect x="412" y="454" width="88" height="7" rx="4" fill="#4A4A4A" opacity="0.55"/><rect x="412" y="472" width="64" height="7" rx="4" fill="#D9D9D9" opacity="0.9"/><rect x="412" y="490" width="76" height="7" rx="4" fill="#D9D9D9" opacity="0.9"/></g><g filter="url(#wobble)"><rect x="630" y="285" width="180" height="210" rx="28" fill="#FFFFFF" stroke="#D9D9D9" stroke-width="3" opacity="1"/><rect x="684" y="327" width="72" height="56" rx="12" fill="#F9E79F" stroke="#1A1A1A" stroke-width="3" opacity="1"/><path d="M 705 357 l 9.9 9.9 l 20.900000000000002 -24.750000000000004" fill="none" stroke="#1A1A1A" stroke-width="2.75" stroke-linecap="round" stroke-linejoin="round"/><rect x="677" y="420" width="88" height="7" rx="4" fill="#4A4A4A" opacity="0.55"/><rect x="677" y="438" width="64" height="7" rx="4" fill="#D9D9D9" opacity="0.9"/><rect x="677" y="456" width="76" height="7" rx="4" fill="#D9D9D9" opacity="0.9"/></g><g filter="url(#wobble)"><rect x="895" y="319" width="180" height="210" rx="28" fill="#FFFFFF" stroke="#D9D9D9" stroke-width="3" opacity="1"/><circle cx="985" cy="389" r="30" fill="#FADBD8" stroke="#1A1A1A" stroke-width="3"/><circle cx="985" cy="389" r="8" fill="#FFFFFF" stroke="#1A1A1A" stroke-width="3"/><rect x="942" y="454" width="88" height="7" rx="4" fill="#4A4A4A" opacity="0.55"/><rect x="942" y="472" width="64" height="7" rx="4" fill="#D9D9D9" opacity="0.9"/><rect x="942" y="490" width="76" height="7" rx="4" fill="#D9D9D9" opacity="0.9"/></g><g filter="url(#wobble)"><rect x="1160" y="285" width="180" height="210" rx="28" fill="#FFFFFF" stroke="#D9D9D9" stroke-width="3" opacity="1"/><rect x="1219" y="324" width="62" height="62" rx="16" fill="#D8CFF0" stroke="#1A1A1A" stroke-width="3" opacity="1"/><line x1="1236" y1="355" x2="1264" y2="355" stroke="#1A1A1A" stroke-width="3" stroke-linecap="round"/><line x1="1250" y1="341" x2="1250" y2="369" stroke="#1A1A1A" stroke-width="3" stroke-linecap="round"/><rect x="1207" y="420" width="88" height="7" rx="4" fill="#4A4A4A" opacity="0.55"/><rect x="1207" y="438" width="64" height="7" rx="4" fill="#D9D9D9" opacity="0.9"/><rect x="1207" y="456" width="76" height="7" rx="4" fill="#D9D9D9" opacity="0.9"/></g><line x1="286" y1="390" x2="353" y2="424" stroke="#1A1A1A" stroke-width="3" stroke-linecap="round"/><path d="M 340 417.5 L 353 424 L 340 430.5" fill="none" stroke="#1A1A1A" stroke-width="3" stroke-linecap="round" stroke-linejoin="round"/><line x1="551" y1="424" x2="618" y2="390" stroke="#1A1A1A" stroke-width="3" stroke-linecap="round"/><path d="M 605 383.5 L 618 390 L 605 396.5" fill="none" stroke="#1A1A1A" stroke-width="3" stroke-linecap="round" stroke-linejoin="round"/><line x1="816" y1="390" x2="883" y2="424" stroke="#1A1A1A" stroke-width="3" stroke-linecap="round"/><path d="M 870 417.5 L 883 424 L 870 430.5" fill="none" stroke="#1A1A1A" stroke-width="3" stroke-linecap="round" stroke-linejoin="round"/><line x1="1081" y1="424" x2="1148" y2="390" stroke="#1A1A1A" stroke-width="3" stroke-linecap="round"/><path d="M 1135 383.5 L 1148 390 L 1135 396.5" fill="none" stroke="#1A1A1A" stroke-width="3" stroke-linecap="round" stroke-linejoin="round"/><path d="M 1250 535 C 1120 690, 440 700, 185 535" fill="none" stroke="#1A1A1A" stroke-width="3" stroke-dasharray="10 13" stroke-linecap="round"/><path d="M 191 535 l -18 -5 l 8 18" fill="none" stroke="#1A1A1A" stroke-width="3" stroke-linecap="round"/><g opacity="0.7">
    <path d="M 124 112 l 18 -8 l -8 18" fill="none" stroke="#1A1A1A" stroke-width="2.5" stroke-linecap="round"/>
    <path d="M 1261 690 l 15 15 m -15 0 l 15 -15" fill="none" stroke="#1A1A1A" stroke-width="2.5" stroke-linecap="round"/>
    <circle cx="1330" cy="145" r="8" fill="#F9E79F" stroke="#1A1A1A" stroke-width="2"/>
    <circle cx="139" cy="710" r="6" fill="#FADBD8" stroke="#1A1A1A" stroke-width="2"/>
  </g></g>
</svg>
