<svg xmlns="http://www.w3.org/2000/svg" width="1440" height="810" viewBox="0 0 1440 810" role="img" aria-label="Notion 图解：并发控制不是越大越快">
  <defs>
    <filter id="wobble" x="-5%" y="-5%" width="110%" height="110%">
      <feTurbulence type="fractalNoise" baseFrequency="0.008" numOctaves="1" seed="60" result="noise"/>
      <feDisplacementMap in="SourceGraphic" in2="noise" scale="1.35" xChannelSelector="R" yChannelSelector="G"/>
    </filter>
    <filter id="shadow" x="-10%" y="-10%" width="120%" height="130%">
      <feDropShadow dx="0" dy="8" stdDeviation="10" flood-color="#1A1A1A" flood-opacity="0.08"/>
    </filter>
  </defs>
  <rect width="1440" height="810" fill="#FFFFFF"/>
  <rect x="50" y="50" width="1340" height="710" rx="42" fill="#FFFFFF" stroke="#D9D9D9" stroke-width="2" filter="url(#shadow)"/>
  <g stroke-linecap="round" stroke-linejoin="round"><g filter="url(#wobble)"><rect x="120" y="130" width="500" height="550" rx="34" fill="#FFFFFF" stroke="#D9D9D9" stroke-width="3" opacity="1"/><circle cx="370" cy="235" r="76" fill="#A8D4F0" stroke="#1A1A1A" stroke-width="3"/><rect x="339" y="204" width="62" height="62" rx="16" fill="#FFFFFF" stroke="#1A1A1A" stroke-width="3" opacity="1"/><line x1="356" y1="235" x2="384" y2="235" stroke="#1A1A1A" stroke-width="3" stroke-linecap="round"/><line x1="370" y1="221" x2="370" y2="249" stroke="#1A1A1A" stroke-width="3" stroke-linecap="round"/><circle cx="206" cy="385" r="13" fill="#FAFAFA" stroke="#1A1A1A" stroke-width="2"/><rect x="245" y="360" width="300" height="50" rx="14" fill="#FAFAFA" stroke="#D9D9D9" stroke-width="3" opacity="1"/><circle cx="206" cy="467" r="13" fill="#A8D4F0" stroke="#1A1A1A" stroke-width="2"/><rect x="245" y="442" width="272" height="50" rx="14" fill="#FAFAFA" stroke="#D9D9D9" stroke-width="3" opacity="1"/><circle cx="206" cy="549" r="13" fill="#FAFAFA" stroke="#1A1A1A" stroke-width="2"/><rect x="245" y="524" width="244" height="50" rx="14" fill="#FAFAFA" stroke="#D9D9D9" stroke-width="3" opacity="1"/></g><g filter="url(#wobble)"><rect x="820" y="130" width="500" height="550" rx="34" fill="#FFFFFF" stroke="#D9D9D9" stroke-width="3" opacity="1"/><circle cx="1070" cy="235" r="76" fill="#FADBD8" stroke="#1A1A1A" stroke-width="3"/><path d="M 1038 263 L 1070 203 L 1102 263 Z" fill="#FFFFFF" stroke="#1A1A1A" stroke-width="3" stroke-linejoin="round"/><line x1="1056" y1="243" x2="1084" y2="243" stroke="#1A1A1A" stroke-width="3" stroke-linecap="round"/><circle cx="906" cy="385" r="13" fill="#FAFAFA" stroke="#1A1A1A" stroke-width="2"/><rect x="945" y="360" width="300" height="50" rx="14" fill="#FAFAFA" stroke="#D9D9D9" stroke-width="3" opacity="1"/><circle cx="906" cy="467" r="13" fill="#FADBD8" stroke="#1A1A1A" stroke-width="2"/><rect x="945" y="442" width="272" height="50" rx="14" fill="#FAFAFA" stroke="#D9D9D9" stroke-width="3" opacity="1"/><circle cx="906" cy="549" r="13" fill="#FAFAFA" stroke="#1A1A1A" stroke-width="2"/><rect x="945" y="524" width="244" height="50" rx="14" fill="#FAFAFA" stroke="#D9D9D9" stroke-width="3" opacity="1"/></g><line x1="720" y1="160" x2="720" y2="650" stroke="#1A1A1A" stroke-width="2" stroke-linecap="round" stroke-dasharray="9 12"/><circle cx="720" cy="405" r="54" fill="#FFFFFF" stroke="#1A1A1A" stroke-width="3"/><path d="M 690 420 Q 720 380 750 420" fill="none" stroke="#1A1A1A" stroke-width="4" stroke-linecap="round"/><circle cx="695" cy="425" r="11" fill="#A8D4F0" stroke="#1A1A1A" stroke-width="2"/><circle cx="745" cy="425" r="11" fill="#FADBD8" stroke="#1A1A1A" stroke-width="2"/><g opacity="0.7">
    <path d="M 110 112 l 18 -8 l -8 18" fill="none" stroke="#1A1A1A" stroke-width="2.5" stroke-linecap="round"/>
    <path d="M 1275 690 l 15 15 m -15 0 l 15 -15" fill="none" stroke="#1A1A1A" stroke-width="2.5" stroke-linecap="round"/>
    <circle cx="1330" cy="131" r="8" fill="#F9E79F" stroke="#1A1A1A" stroke-width="2"/>
    <circle cx="125" cy="710" r="6" fill="#FADBD8" stroke="#1A1A1A" stroke-width="2"/>
  </g></g>
</svg>
