<svg xmlns="http://www.w3.org/2000/svg" width="1440" height="810" viewBox="0 0 1440 810" role="img" aria-label="Notion 图解：Multi-agent V2 到底改变了什么">
  <defs>
    <filter id="wobble" x="-5%" y="-5%" width="110%" height="110%">
      <feTurbulence type="fractalNoise" baseFrequency="0.008" numOctaves="1" seed="19" result="noise"/>
      <feDisplacementMap in="SourceGraphic" in2="noise" scale="1.35" xChannelSelector="R" yChannelSelector="G"/>
    </filter>
    <filter id="shadow" x="-10%" y="-10%" width="120%" height="130%">
      <feDropShadow dx="0" dy="8" stdDeviation="10" flood-color="#1A1A1A" flood-opacity="0.08"/>
    </filter>
  </defs>
  <rect width="1440" height="810" fill="#FFFFFF"/>
  <rect x="50" y="50" width="1340" height="710" rx="42" fill="#FFFFFF" stroke="#D9D9D9" stroke-width="2" filter="url(#shadow)"/>
  <g stroke-linecap="round" stroke-linejoin="round"><path d="M 130 500 L 360 390 L 590 480 L 820 330 L 1050 420 L 1280 245" fill="none" stroke="#1A1A1A" stroke-width="4" stroke-linecap="round" stroke-linejoin="round"/><g filter="url(#wobble)"><circle cx="130" cy="500" r="21" fill="#F9E79F" stroke="#1A1A1A" stroke-width="3"/><line x1="130" y1="478" x2="130" y2="430" stroke="#1A1A1A" stroke-width="2" stroke-linecap="round" stroke-dasharray="9 12"/><rect x="50" y="315" width="160" height="115" rx="22" fill="#FFFFFF" stroke="#D9D9D9" stroke-width="3" opacity="1"/><path d="M 130 319 L 168 357 L 130 395 L 92 357 Z" fill="#F9E79F" stroke="#1A1A1A" stroke-width="3"/><circle cx="130" cy="357" r="8" fill="#FFFFFF" stroke="#1A1A1A" stroke-width="3"/><rect x="88" y="397" width="84" height="7" rx="4" fill="#4A4A4A" opacity="0.55"/><rect x="88" y="415" width="58" height="7" rx="4" fill="#D9D9D9" opacity="0.9"/></g><g filter="url(#wobble)"><circle cx="360" cy="390" r="21" fill="#FADBD8" stroke="#1A1A1A" stroke-width="3"/><line x1="360" y1="412" x2="360" y2="445" stroke="#1A1A1A" stroke-width="2" stroke-linecap="round" stroke-dasharray="9 12"/><rect x="280" y="445" width="160" height="115" rx="22" fill="#FFFFFF" stroke="#D9D9D9" stroke-width="3" opacity="1"/><circle cx="360" cy="476" r="20" fill="#FADBD8" stroke="#1A1A1A" stroke-width="3"/><path d="M 326 521 Q 360 490 394 521" fill="none" stroke="#1A1A1A" stroke-width="3" stroke-linecap="round"/><rect x="318" y="527" width="84" height="7" rx="4" fill="#4A4A4A" opacity="0.55"/><rect x="318" y="545" width="58" height="7" rx="4" fill="#D9D9D9" opacity="0.9"/></g><g filter="url(#wobble)"><circle cx="590" cy="480" r="21" fill="#D8CFF0" stroke="#1A1A1A" stroke-width="3"/><line x1="590" y1="458" x2="590" y2="410" stroke="#1A1A1A" stroke-width="2" stroke-linecap="round" stroke-dasharray="9 12"/><rect x="510" y="295" width="160" height="115" rx="22" fill="#FFFFFF" stroke="#D9D9D9" stroke-width="3" opacity="1"/><path d="M 558 365 L 590 305 L 622 365 Z" fill="#D8CFF0" stroke="#1A1A1A" stroke-width="3" stroke-linejoin="round"/><line x1="576" y1="345" x2="604" y2="345" stroke="#1A1A1A" stroke-width="3" stroke-linecap="round"/><rect x="548" y="377" width="84" height="7" rx="4" fill="#4A4A4A" opacity="0.55"/><rect x="548" y="395" width="58" height="7" rx="4" fill="#D9D9D9" opacity="0.9"/></g><g filter="url(#wobble)"><circle cx="820" cy="330" r="21" fill="#A8D4F0" stroke="#1A1A1A" stroke-width="3"/><line x1="820" y1="352" x2="820" y2="385" stroke="#1A1A1A" stroke-width="2" stroke-linecap="round" stroke-dasharray="9 12"/><rect x="740" y="385" width="160" height="115" rx="22" fill="#FFFFFF" stroke="#D9D9D9" stroke-width="3" opacity="1"/><rect x="784" y="399" width="72" height="56" rx="12" fill="#A8D4F0" stroke="#1A1A1A" stroke-width="3" opacity="1"/><path d="M 805 429 l 9.9 9.9 l 20.900000000000002 -24.750000000000004" fill="none" stroke="#1A1A1A" stroke-width="2.75" stroke-linecap="round" stroke-linejoin="round"/><rect x="778" y="467" width="84" height="7" rx="4" fill="#4A4A4A" opacity="0.55"/><rect x="778" y="485" width="58" height="7" rx="4" fill="#D9D9D9" opacity="0.9"/></g><g filter="url(#wobble)"><circle cx="1050" cy="420" r="21" fill="#A8D4F0" stroke="#1A1A1A" stroke-width="3"/><line x1="1050" y1="398" x2="1050" y2="350" stroke="#1A1A1A" stroke-width="2" stroke-linecap="round" stroke-dasharray="9 12"/><rect x="970" y="235" width="160" height="115" rx="22" fill="#FFFFFF" stroke="#D9D9D9" stroke-width="3" opacity="1"/><circle cx="1050" cy="277" r="30" fill="#A8D4F0" stroke="#1A1A1A" stroke-width="3"/><circle cx="1050" cy="277" r="8" fill="#FFFFFF" stroke="#1A1A1A" stroke-width="3"/><rect x="1008" y="317" width="84" height="7" rx="4" fill="#4A4A4A" opacity="0.55"/><rect x="1008" y="335" width="58" height="7" rx="4" fill="#D9D9D9" opacity="0.9"/></g><g filter="url(#wobble)"><circle cx="1280" cy="245" r="21" fill="#BFE3D0" stroke="#1A1A1A" stroke-width="3"/><line x1="1280" y1="267" x2="1280" y2="300" stroke="#1A1A1A" stroke-width="2" stroke-linecap="round" stroke-dasharray="9 12"/><rect x="1200" y="300" width="160" height="115" rx="22" fill="#FFFFFF" stroke="#D9D9D9" stroke-width="3" opacity="1"/><rect x="1249" y="311" width="62" height="62" rx="16" fill="#BFE3D0" stroke="#1A1A1A" stroke-width="3" opacity="1"/><line x1="1266" y1="342" x2="1294" y2="342" stroke="#1A1A1A" stroke-width="3" stroke-linecap="round"/><line x1="1280" y1="328" x2="1280" y2="356" stroke="#1A1A1A" stroke-width="3" stroke-linecap="round"/><rect x="1238" y="382" width="84" height="7" rx="4" fill="#4A4A4A" opacity="0.55"/><rect x="1238" y="400" width="58" height="7" rx="4" fill="#D9D9D9" opacity="0.9"/></g><g opacity="0.7">
    <path d="M 107 112 l 18 -8 l -8 18" fill="none" stroke="#1A1A1A" stroke-width="2.5" stroke-linecap="round"/>
    <path d="M 1278 690 l 15 15 m -15 0 l 15 -15" fill="none" stroke="#1A1A1A" stroke-width="2.5" stroke-linecap="round"/>
    <circle cx="1330" cy="128" r="8" fill="#F9E79F" stroke="#1A1A1A" stroke-width="2"/>
    <circle cx="122" cy="710" r="6" fill="#FADBD8" stroke="#1A1A1A" stroke-width="2"/>
  </g></g>
</svg>
