<svg xmlns="http://www.w3.org/2000/svg" width="1600" height="900" viewBox="0 0 1600 900">
  <defs>
    <style>
      text{font-family:'PingFang SC','Noto Sans CJK SC','Helvetica Neue',Arial,sans-serif;letter-spacing:0;fill:#2D2D2D}
      .title{font-size:46px;font-weight:800}.sub{font-size:24px;fill:#6B6B6B}.label{font-size:25px;font-weight:700}.small{font-size:19px;fill:#6B6B6B}.tiny{font-size:16px;fill:#6B6B6B}
      .box{stroke:#2D2D2D;stroke-width:5;rx:28;ry:28}.thin{stroke:#2D2D2D;stroke-width:3}.dash{stroke-dasharray:10 10}.arrow{stroke:#2D2D2D;stroke-width:6;stroke-linecap:round;stroke-linejoin:round;fill:none}.accent{fill:#E8655A}
    </style>
    <marker id="arrow" markerWidth="12" markerHeight="12" refX="10" refY="6" orient="auto" markerUnits="strokeWidth"><path d="M2,2 L10,6 L2,10 Z" fill="#2D2D2D"/></marker>
    <filter id="shadow" x="-10%" y="-10%" width="120%" height="120%"><feDropShadow dx="0" dy="6" stdDeviation="3" flood-color="#000" flood-opacity="0.10"/></filter>
    <pattern id="paper" width="36" height="36" patternUnits="userSpaceOnUse"><circle cx="4" cy="6" r="1" fill="#e9dccd" opacity="0.35"/><circle cx="28" cy="24" r="1" fill="#e9dccd" opacity="0.25"/></pattern>
  </defs>
  <rect width="1600" height="900" fill="#F5F0E8"/><rect width="1600" height="900" fill="url(#paper)"/>
  <text class="title" x="80" y="86">Loop Engineering 二维坐标</text>
  
  <text class="sub" x="80" y="126">横轴看构件，纵轴看嵌套层级；两套框架互补</text>
  <text class="label" x="870" y="170" text-anchor="middle">横轴：Addy 五积木 + 状态中枢</text>
  <text class="label" x="235" y="490" text-anchor="middle">纵轴：LangChain 4 层 loop</text>
  <g transform="translate(340,210)">
    <rect class="thin" x="0" y="0" width="145" height="74" rx="18" fill="#A8D8EA"/><text class="tiny" x="72" y="44" text-anchor="middle">schedule</text><rect class="thin" x="155" y="0" width="145" height="74" rx="18" fill="#B5E5CF"/><text class="tiny" x="227" y="44" text-anchor="middle">worktree</text><rect class="thin" x="310" y="0" width="145" height="74" rx="18" fill="#A8D8EA"/><text class="tiny" x="382" y="44" text-anchor="middle">skills</text><rect class="thin" x="465" y="0" width="145" height="74" rx="18" fill="#B5E5CF"/><text class="tiny" x="537" y="44" text-anchor="middle">connectors</text><rect class="thin" x="620" y="0" width="145" height="74" rx="18" fill="#A8D8EA"/><text class="tiny" x="692" y="44" text-anchor="middle">sub-agents</text><rect class="thin" x="775" y="0" width="145" height="74" rx="18" fill="#B5E5CF"/><text class="tiny" x="847" y="44" text-anchor="middle">verifier</text><rect class="thin" x="930" y="0" width="145" height="74" rx="18" fill="#A8D8EA"/><text class="tiny" x="1002" y="44" text-anchor="middle">STATE</text>
    <text class="small" x="-30" y="130" text-anchor="end">agent loop</text><text class="small" x="-30" y="245" text-anchor="end">verification loop</text><text class="small" x="-30" y="360" text-anchor="end">event-driven loop</text><text class="small" x="-30" y="475" text-anchor="end">hill-climbing</text>
    <rect class="thin" x="0" y="95" width="145" height="88" rx="18" fill="#ffffff"/><rect class="thin" x="155" y="95" width="145" height="88" rx="18" fill="#FFF8EE"/><rect class="thin" x="310" y="95" width="145" height="88" rx="18" fill="#ffffff"/><rect class="thin" x="465" y="95" width="145" height="88" rx="18" fill="#FFF8EE"/><rect class="thin" x="620" y="95" width="145" height="88" rx="18" fill="#ffffff"/><rect class="thin" x="775" y="95" width="145" height="88" rx="18" fill="#FFF8EE"/><rect class="thin" x="930" y="95" width="145" height="88" rx="18" fill="#ffffff"/><rect class="thin" x="0" y="210" width="145" height="88" rx="18" fill="#FFF8EE"/><rect class="thin" x="155" y="210" width="145" height="88" rx="18" fill="#ffffff"/><rect class="thin" x="310" y="210" width="145" height="88" rx="18" fill="#FFF8EE"/><rect class="thin" x="465" y="210" width="145" height="88" rx="18" fill="#ffffff"/><rect class="thin" x="620" y="210" width="145" height="88" rx="18" fill="#FFF8EE"/><rect class="thin" x="775" y="210" width="145" height="88" rx="18" fill="#ffffff"/><rect class="thin" x="930" y="210" width="145" height="88" rx="18" fill="#FFF8EE"/><rect class="thin" x="0" y="325" width="145" height="88" rx="18" fill="#ffffff"/><rect class="thin" x="155" y="325" width="145" height="88" rx="18" fill="#FFF8EE"/><rect class="thin" x="310" y="325" width="145" height="88" rx="18" fill="#ffffff"/><rect class="thin" x="465" y="325" width="145" height="88" rx="18" fill="#FFF8EE"/><rect class="thin" x="620" y="325" width="145" height="88" rx="18" fill="#ffffff"/><rect class="thin" x="775" y="325" width="145" height="88" rx="18" fill="#FFF8EE"/><rect class="thin" x="930" y="325" width="145" height="88" rx="18" fill="#ffffff"/><rect class="thin" x="0" y="440" width="145" height="88" rx="18" fill="#FFF8EE"/><rect class="thin" x="155" y="440" width="145" height="88" rx="18" fill="#ffffff"/><rect class="thin" x="310" y="440" width="145" height="88" rx="18" fill="#FFF8EE"/><rect class="thin" x="465" y="440" width="145" height="88" rx="18" fill="#ffffff"/><rect class="thin" x="620" y="440" width="145" height="88" rx="18" fill="#FFF8EE"/><rect class="thin" x="775" y="440" width="145" height="88" rx="18" fill="#ffffff"/><rect class="thin" x="930" y="440" width="145" height="88" rx="18" fill="#FFF8EE"/>
    <rect class="thin" x="775" y="210" width="145" height="88" rx="18" fill="#D5C6E0" stroke="#E8655A" stroke-width="6"/><text class="small" x="847" y="263" text-anchor="middle">strong</text>
    <rect class="thin" x="0" y="325" width="145" height="88" rx="18" fill="#FFD5C2"/><text class="small" x="72" y="378" text-anchor="middle">trigger</text>
    <rect class="thin" x="465" y="325" width="145" height="88" rx="18" fill="#FFD5C2"/><text class="small" x="537" y="378" text-anchor="middle">MCP</text>
    <rect class="thin" x="155" y="95" width="145" height="433" rx="18" fill="none" stroke="#E8655A" stroke-width="6" stroke-dasharray="12 10"/>
    <rect class="thin" x="930" y="95" width="145" height="433" rx="18" fill="none" stroke="#E8655A" stroke-width="6" stroke-dasharray="12 10"/>
  </g>
  <rect class="box" x="520" y="780" width="560" height="70" fill="#FFF8EE"/><text class="small" x="800" y="826" text-anchor="middle">缺口提醒：isolation、STATE、hill-climbing</text>

</svg>